# xmcd CD database file
#
# Track frame offsets:
#	150
#	17080
#	34702
#	49577
#	63677
#	79877
#	99330
#	118140
#	140335
#	162910
#
# Disc length: 2433 seconds
#
# Revision: 1
# Processed by: cddbd v1.5PL3 Copyright (c) Steve Scherf et al.
# Submitted via: CDex 1.50
#
DISCID=80097f0a
DTITLE=林立夫 - SUPER PERCUSSION Vol.1
DYEAR=1979
DGENRE=Instrumental
TTITLE0=FAST DISCO
TTITLE1=STRAIGHT ROCK
TTITLE2=SLOW DISCO
TTITLE3=LATIN ROCK
TTITLE4=BALLAD
TTITLE5=SUCHA-ROCA
TTITLE6=METALCHARM
TTITLE7=HI-G
TTITLE8=EL PASO
TTITLE9=CASTIN' BLUE
EXTD=YEAR: 1979
EXTT0=
EXTT1=
EXTT2=
EXTT3=
EXTT4=
EXTT5=
EXTT6=
EXTT7=
EXTT8=
EXTT9=
PLAYORDER=
